# AST/ASF file generated using VICON BodyLanguage
# -----------------------------------------------
:version 1.10
:name VICON
:units
  mass 1.0
  length 0.45
  angle deg
:documentation
   .ast/.asf automatically generated from VICON data using
   VICON BodyBuilder and BodyLanguage model FoxedUp or BRILLIANT.MOD
:root
   order TX TY TZ RX RY RZ
   axis XYZ
   position 0 0 0  
   orientation 0 0 0 
:bonedata
  begin
     id 1 
     name lhipjoint
     direction 0.612567 -0.751349 0.245431 
     length 2.42285 
     axis 0 0 0  XYZ
  end
  begin
     id 2 
     name lfemur
     direction 0.34202 -0.939693 0  
     length 7.11304  
     axis 0 0 20  XYZ
    dof rx ry rz
    limits (-160.0 20.0)
           (-70.0 70.0)
           (-60.0 70.0)
  end
  begin
     id 3 
     name ltibia
     direction 0.34202 -0.939693 0   
     length 7.84529   
     axis 0 0 20   XYZ
    dof rx
    limits (-10.0 170.0)
  end
  begin
     id 4 
     name lfoot
     direction 0.0779239 -0.214094 0.9737   
     length 1.97176   
     axis -90 7.62852e-016 20   XYZ
    dof rx rz
    limits (-45.0 90.0)
           (-70.0 20.0)
  end
  begin
     id 5 
     name ltoes
     direction 1.53565e-011 -4.21709e-011 1   
     length 0.993197   
     axis -90 7.62852e-016 20   XYZ
    dof rx
    limits (-90.0 20.0)
  end
  begin
     id 6 
     name rhipjoint
     direction -0.665722 -0.709315 0.231701   
     length 2.56642  
     axis 0 0 0  XYZ 
  end
  begin
     id 7 
     name rfemur
     direction -0.34202 -0.939693 0   
     length 7.32108   
     axis 0 0 -20   XYZ
    dof rx ry rz
    limits (-160.0 20.0)
           (-70.0 70.0)
           (-70.0 60.0)
  end
  begin
     id 8 
     name rtibia
     direction -0.34202 -0.939693 0   
     length 7.81254   
     axis 0 0 -20   XYZ
    dof rx
    limits (-10.0 170.0)
 end
 begin
     id 9 
     name rfoot
     direction -0.0832806 -0.228812 0.969902   
     length 2.08278  
     axis -90 -7.62852e-016 -20   XYZ
    dof rx rz
    limits (-45.0 90.0)
           (-20.0 70.0)
  end
  begin
     id 10 
     name rtoes
     direction -1.53589e-011 -4.22086e-011 1   
     length 1.04609   
     axis -90 -7.62852e-016 -20   XYZ
    dof rx
    limits (-90.0 20.0)
  end
  begin
     id 11 
     name lowerback
     direction -0.00506013 0.988403 -0.151766   
     length 2.01978   
     axis 0 0 0   XYZ
    dof rx ry rz
    limits (-20.0 45.0)
           (-30.0 30.0)
           (-30.0 30.0)
  end
  begin
     id 12 
     name upperback
     direction -0.00836389 0.99968 0.0238859   
     length 2.01276   
     axis 0 0 0   XYZ
    dof rx ry rz
    limits (-20.0 45.0)
           (-30.0 30.0)
           (-30.0 30.0)
  end
  begin
     id 13 
     name thorax
     direction -0.00684136 0.995386 0.0957043   
     length 2.07303   
     axis 0 0 0   XYZ
    dof rx ry rz
    limits (-20.0 45.0)
           (-30.0 30.0)
           (-30.0 30.0)
  end
  begin
     id 14 
     name lowerneck
     direction -0.0161045 0.999661 0.0204485   
     length 1.91243   
     axis 0 0 0   XYZ
    dof rx ry rz
    limits (-20.0 45.0)
           (-30.0 30.0)
           (-30.0 30.0)
  end
  begin
     id 15 
     name upperneck
     direction 0.0553583 0.990946 -0.122319   
     length 1.91574   
     axis 0 0 0   XYZ
    dof rx ry rz
    limits (-20.0 45.0)
           (-30.0 30.0)
           (-30.0 30.0)
  end
  begin
     id 16
     name head
     direction 0.0180273 0.998839 -0.0446756  
     length 1.92693  
     axis 0 0 0   XYZ
    dof rx ry rz
    limits (-20.0 45.0)
           (-30.0 30.0)
           (-30.0 30.0)
  end
  begin
     id 17 
     name lclavicle
     direction 0.945646 0.319323 -0.0615358  
     length 4.0076  
     axis 0 0 0   XYZ
    dof ry rz
    limits (-20.0 10.0)
           (0.0 20.0)
  end
  begin
     id 18 
     name lhumerus
     direction 1 -4.48967e-011 -2.79996e-027   
     length 5.64147   
     axis 180 -30 -90   XYZ
    dof rx ry rz
    limits (-60.0 90.0)
           (-90.0 90.0)
           (-90.0 90.0)
  end
  begin
     id 19
     name lradius
     direction 1 -4.48976e-011 -9.5122e-027   
     length 2.86444   
     axis 180 -30 -90   XYZ
    dof rx
    limits (-10.0 170.0)
  end
  begin
     id 20
     name lwrist
     direction 1 -4.48983e-011 -1.24047e-026   
     length 1.43222   
     axis 9.05591e-015 90 90   XYZ
    dof ry
    limits (-180.0 0.0)
 end
  begin
     id 21 
     name lhand
     direction 1 -4.4892e-011 -2.48094e-026   
     length 0.722123   
     axis 1.58305e-014 90 90   XYZ
    dof rx rz
    limits (-90.0 90.0)
           (-45.0 45.0)
  end
  begin
     id 22 
     name lfingers
     direction 1 -4.48895e-011 -4.96187e-026   
     length 0.582194   
     axis 3.1661e-014 90 90   XYZ
    dof rx
    limits (0.0 90.0)
  end
  begin
     id 23
     name lthumb
     direction 0.707107 -6.34961e-011 0.707107   
     length 0.835918   
     axis -90 45 2.85299e-015   XYZ
    dof rx rz
    limits (-45.0 45.0)
           (-45.0 45.0)
  end
  begin
     id 24 
     name rclavicle
     direction -0.932635 0.324218 -0.15835   
     length 3.65819  
     axis 0 0 0   XYZ 
    dof ry rz
    limits (-10.0 20.0)
           (-20.0 0.0)
  end
  begin
     id 25 
     name rhumerus
     direction -1 -4.48965e-011 -4.02296e-027  
     length 5.44729   
     axis 180 30 90   XYZ
    dof rx ry rz
    limits (-90.0 60.0)
           (-90.0 90.0)
           (-90.0 90.0)
  end
  begin
     id 26 
     name rradius
     direction -1 -4.48957e-011 -8.81087e-027   
     length 3.08821   
     axis 180 30 90   XYZ
    dof rx
    limits (-10.0 170.0)
  end
  begin
     id 27 
     name rwrist
     direction -1 -4.49015e-011 -1.24047e-026   
     length 1.5441   
     axis 9.05591e-015 -90 -90   XYZ
    dof ry
    limits (-180.0 0.0)
  end
  begin
     id 28
     name rhand
     direction -1 -4.4891e-011 -2.48094e-026   
     length 0.821049   
     axis 1.58305e-014 -90 -90   XYZ
    dof rx rz
    limits (-90.0 90.0)
           (-45.0 45.0)
  end
  begin
     id 29
     name rfingers
     direction -1 -4.48985e-011 -4.96187e-026   
     length 0.661951   
     axis 3.1661e-014 -90 -90   XYZ
    dof rx
    limits (0.0 90.0)
  end
  begin
     id 30
     name rthumb
     direction -0.707107 -6.34906e-011 0.707107   
     length 0.950433   
     axis -90 -45 -2.85299e-015   XYZ
    dof rx rz
    limits (-45.0 45.0)
           (-45.0 45.0)
  end
:hierarchy
  begin
    root lhipjoint rhipjoint lowerback
    lhipjoint lfemur
    lfemur ltibia
    ltibia lfoot
    lfoot ltoes
    rhipjoint rfemur
    rfemur rtibia
    rtibia rfoot
    rfoot rtoes
    lowerback upperback
    upperback thorax
    thorax lowerneck lclavicle rclavicle
    lowerneck upperneck
    upperneck head
    lclavicle lhumerus
    lhumerus lradius
    lradius lwrist
    lwrist lhand lthumb
    lhand lfingers
    rclavicle rhumerus
    rhumerus rradius
    rradius rwrist
    rwrist rhand rthumb
    rhand rfingers
  end

#!OML:ASF F:\VICON\USERDATA\INSTALL\rory3\rory3.ASF
:FULLY-SPECIFIED
:DEGREES
2063
root 3.03904 17.714 0.129178 501.563 90.5169 503.998
lowerback 6.23565 0.620418 2.33353
upperback 0.548754 0.97435 -0.890222
thorax -2.87594 0.457965 -2.31307
lowerneck -2.80438 -5.29344 -4.97624
upperneck 5.63823 -7.25542 7.63751
head 2.85275 -3.48724 3.14134
rclavicle -9.19379e-015 6.16232e-015
rhumerus 36.9305 6.88946 -78.9792
rradius 58.3865
rwrist -19.1359
rhand -14.4226 -1.72335
rfingers 7.12502
rthumb 11.7216 -31.3754
lclavicle -9.19379e-015 6.16232e-015
lhumerus 37.0785 -14.9644 78.7264
lradius 61.0086
lwrist 66.5003
lhand -26.2597 7.48751
lfingers 7.12502
lthumb 0.294899 37.467
rfemur 1.53378 0.368184 18.938
rtibia 15.0879
rfoot -17.1637 -7.58122
rtoes -9.96316
lfemur 1.93521 0.556008 -16.2621
ltibia 9.57622
lfoot -9.19158 0.234006
ltoes -3.77408
2064
root 3.04001 17.715 0.128033 501.086 90.5623 503.521
lowerback 6.24847 0.623301 2.35836
upperback 0.534855 0.980793 -0.865905
thorax -2.89712 0.460427 -2.30282
lowerneck -2.79736 -5.28154 -4.98922
upperneck 5.62787 -7.23736 7.61503
head 2.84602 -3.47965 3.13695
rclavicle -1.11785e-014 -2.78299e-015
rhumerus 36.6725 7.02444 -78.7923
rradius 58.6147
rwrist -19.2216
rhand -14.5273 -1.62791
rfingers 7.12502
rthumb 11.6207 -31.2857
lclavicle -1.11785e-014 -2.78299e-015
lhumerus 36.84 -14.9786 78.6317
lradius 61.4767
lwrist 66.5666
lhand -26.3854 7.34966
lfingers 7.12502
lthumb 0.173534 37.3293
rfemur 1.52074 0.379504 18.9627
rtibia 15.0945
rfoot -17.1385 -7.55934
rtoes -9.9511
lfemur 1.95273 0.601056 -16.2345
ltibia 9.5621
lfoot -9.16674 0.224457
ltoes -3.77653
2065
root 3.04154 17.7161 0.12599 507.044 90.582 509.495
lowerback 6.28354 0.631228 2.34612
upperback 0.525262 0.990946 -0.878978
thorax -2.92606 0.465027 -2.31103
lowerneck -2.79218 -5.27222 -5.00704
upperneck 5.6138 -7.22366 7.61653
head 2.84026 -3.4736 3.14156
rclavicle -1.14922e-014 -2.5842e-015
rhumerus 36.3755 7.14374 -78.6622
rradius 58.8529
rwrist -19.1904
rhand -14.7593 -1.37281
rfingers 7.12502
rthumb 11.3969 -31.0431
lclavicle -1.14922e-014 -2.5842e-015
lhumerus 36.5396 -15.0107 78.5065
lradius 62.0295
lwrist 66.5382
lhand -26.5209 7.40337
lfingers 7.12502
lthumb 0.0426115 37.3831
rfemur 1.51475 0.347603 18.9006
rtibia 15.1309
rfoot -17.0955 -7.52087
rtoes -10.0566
lfemur 2.03046 0.663615 -16.2858
ltibia 9.48561
lfoot -9.14619 0.226381
ltoes -3.96185
2066
root 3.04338 17.7176 0.125691 515.292 90.6072 517.736
lowerback 6.28074 0.65253 2.27356
upperback 0.519954 1.01397 -0.885882
thorax -2.92978 0.477234 -2.2793
lowerneck -2.82045 -5.25996 -5.04289
upperneck 5.6026 -7.20468 7.62097
head 2.84241 -3.46464 3.15007
rclavicle -1.85553e-014 3.57812e-015
rhumerus 36.0027 7.23938 -78.4537
rradius 59.2998
rwrist -19.2217
rhand -14.7843 -1.12707
rfingers 7.12502
rthumb 11.3728 -30.7987
lclavicle -1.85553e-014 3.57812e-015
lhumerus 36.2089 -15.0552 78.4343
lradius 62.6079
lwrist 66.4019
lhand -26.3072 7.80945
lfingers 7.12502
lthumb 0.249056 37.7891
rfemur 1.47832 0.388616 18.8317
rtibia 15.1727
rfoot -17.0853 -7.50743
rtoes -10.1933
lfemur 2.10547 0.739932 -16.3609
ltibia 9.37969
lfoot -9.13553 0.275745
ltoes -4.4916
2067
root 3.04729 17.7185 0.126762 527.818 90.5965 530.249
lowerback 6.25966 0.667219 2.10825
upperback 0.506583 1.0208 -0.910588
thorax -2.93379 0.482343 -2.21217
lowerneck -2.86271 -5.24199 -5.02246
upperneck 5.61608 -7.17833 7.57333
head 2.84934 -3.4516 3.13
rclavicle -1.04641e-014 5.76476e-015
rhumerus 35.4858 7.40255 -78.1711
rradius 59.9641
rwrist -19.2839
rhand -14.7483 -1.0529
rfingers 7.12502
rthumb 11.4075 -30.7226
lclavicle -1.04641e-014 5.76476e-015
lhumerus 35.8134 -15.1023 78.3772
lradius 63.3209
lwrist 66.2222
lhand -26.073 8.4506
lfingers 7.12502
lthumb 0.475215 38.4298
rfemur 1.46799 0.422869 18.6942
rtibia 15.1763
rfoot -17.1316 -7.45988
rtoes -10.0781
lfemur 2.13478 0.785013 -16.5061
ltibia 9.34457
lfoot -9.14396 0.298388
ltoes -4.50515
2068
root 3.05429 17.7168 0.127118 528.62 90.6239 531.077
lowerback 6.28909 0.664936 2.10995
upperback 0.474057 1.01784 -0.925265
thorax -2.98373 0.479616 -2.22896
lowerneck -2.86053 -5.22857 -4.98571
upperneck 5.60484 -7.16031 7.55243
head 2.84082 -3.4426 3.11675
rclavicle 1.53002e-014 -6.95746e-015
rhumerus 34.8068 7.66336 -77.8839
rradius 60.8013
rwrist -19.1654
rhand -14.8935 -1.25896
rfingers 7.12502
rthumb 11.2674 -30.9363
lclavicle 1.53002e-014 -6.95746e-015
lhumerus 35.2817 -15.214 78.1976
lradius 64.2629
lwrist 65.9854
lhand -26.0425 8.89385
lfingers 7.12502
lthumb 0.504687 38.873
rfemur 1.50996 0.407919 18.6804
rtibia 15.1875
rfoot -17.1473 -7.36439
rtoes -10.0112
lfemur 2.21084 0.824279 -16.5054
ltibia 9.30542
lfoot -9.15425 0.259603
ltoes -4.0428
2069
root 3.06031 17.7158 0.126872 515.24 90.6801 517.699
lowerback 6.3617 0.64841 2.30186
upperback 0.402929 1.01117 -0.901126
thorax -3.09546 0.471137 -2.31357
lowerneck -2.89831 -5.20765 -4.97915
upperneck 5.6629 -7.13446 7.5585
head 2.86575 -3.42777 3.11802
rclavicle 6.21202e-016 -7.7526e-015
rhumerus 34.0007 7.8811 -77.648
rradius 61.805
rwrist -19.1537
rhand -15.0534 -1.62875
rfingers 7.12502
rthumb 11.1132 -31.3145
lclavicle 6.21202e-016 -7.7526e-015
lhumerus 34.5666 -15.3782 78.0184
lradius 65.3267
lwrist 65.8399
lhand -25.8812 8.8412
lfingers 7.12502
lthumb 0.660514 38.8199
rfemur 1.54097 0.40841 18.8588
rtibia 15.1846
rfoot -17.1533 -7.35213
rtoes -9.93595
lfemur 2.24944 0.841815 -16.3239
ltibia 9.28216
lfoot -9.16382 0.258769
ltoes -4.16999
2070
root 3.06646 17.7152 0.126947 518.026 90.6615 520.484
lowerback 6.40564 0.640711 2.26346
upperback 0.357366 0.998306 -0.921495
thorax -3.1682 0.463421 -2.31322
lowerneck -2.92985 -5.19735 -4.97276
upperneck 5.6165 -7.11837 7.56448
head 2.85473 -3.41959 3.11896
rclavicle -2.0655e-015 1.98785e-016
rhumerus 33.1355 8.08618 -77.3636
rradius 62.928
rwrist -19.2462
rhand -15.0631 -1.77854
rfingers 7.12502
rthumb 11.1039 -31.4648
lclavicle -2.0655e-015 1.98785e-016
lhumerus 33.797 -15.4987 77.9429
lradius 66.4848
lwrist 65.7803
lhand -25.8412 8.62029
lfingers 7.12502
lthumb 0.699166 38.5989
rfemur 1.60441 0.338368 18.8077
rtibia 15.118
rfoot -17.0991 -7.34512
rtoes -10.1769
lfemur 2.21789 0.850197 -16.3678
ltibia 9.39145
lfoot -9.18074 0.216685
ltoes -3.9667
2071
root 3.07316 17.7156 0.128834 520.326 90.6353 522.788
lowerback 6.39636 0.640699 2.19329
upperback 0.359723 0.993019 -0.922832
thorax -3.16199 0.461918 -2.27445
lowerneck -3.00295 -5.19963 -4.99201
upperneck 5.50517 -7.1142 7.5734
head 2.83173 -3.41817 3.12427
rclavicle -8.38623e-017 -9.74045e-015
rhumerus 32.2105 8.35404 -76.9571
rradius 64.1902
rwrist -19.2169
rhand -15.016 -1.64527
rfingers 7.12502
rthumb 11.1493 -31.3291
lclavicle -8.38623e-017 -9.74045e-015
lhumerus 33.0574 -15.6246 77.8638
lradius 67.8065
lwrist 65.7007
lhand -25.9894 8.42244
lfingers 7.12502
lthumb 0.555999 38.4015
rfemur 1.68447 0.309221 18.7771
rtibia 15.0236
rfoot -17.0617 -7.38958
rtoes -10.5252
lfemur 2.15736 0.847241 -16.4012
ltibia 9.55759
lfoot -9.24809 0.190589
ltoes -4.25657
